# xmcd CD database file
#
# Track frame offsets:
#	150
#	43397
#	90227
#	97587
#	143142
#
# Disc length: 2542 seconds
#
# Revision: 1
# Processed by: cddbd v1.5.1PL2 Copyright (c) Steve Scherf et al.
# Submitted via: CDex 1.51
#
DISCID=3309ec05
DTITLE=Art Blakey and THE JAZZ MESSENGERS - Meet You At The Jazz Corner Of The World Volume1
DYEAR=1960
DGENRE=Jazz
TTITLE0=The Opener
TTITLE1=What Know
TTITLE2=The Theme
TTITLE3='Round About Midnight
TTITLE4=The Breeze And I
EXTD=YEAR: 1960
EXTT0=
EXTT1=
EXTT2=
EXTT3=
EXTT4=
PLAYORDER=
